<mxfile host="65bd71144e">
    <diagram id="Qh22GcFXaEpPYYi_aR94" name="ページ1">
        <mxGraphModel dx="1330" dy="781" grid="0" gridSize="10" guides="1" tooltips="1" connect="1" arrows="1" fold="1" page="0" pageScale="1" pageWidth="827" pageHeight="1169" math="0" shadow="0">
            <root>
                <mxCell id="0"/>
                <mxCell id="1" parent="0"/>
                <mxCell id="5" value="articles" style="swimlane;fontStyle=0;childLayout=stackLayout;horizontal=1;startSize=30;horizontalStack=0;resizeParent=1;resizeParentMax=0;resizeLast=0;collapsible=1;marginBottom=0;whiteSpace=wrap;html=1;" parent="1" vertex="1">
                    <mxGeometry x="189" y="424" width="200" height="120" as="geometry"/>
                </mxCell>
                <mxCell id="6" value="id" style="text;strokeColor=none;fillColor=none;align=left;verticalAlign=middle;spacingLeft=4;spacingRight=4;overflow=hidden;points=[[0,0.5],[1,0.5]];portConstraint=eastwest;rotatable=0;whiteSpace=wrap;html=1;" parent="5" vertex="1">
                    <mxGeometry y="30" width="200" height="30" as="geometry"/>
                </mxCell>
                <mxCell id="29" value="title" style="text;strokeColor=none;fillColor=none;align=left;verticalAlign=middle;spacingLeft=4;spacingRight=4;overflow=hidden;points=[[0,0.5],[1,0.5]];portConstraint=eastwest;rotatable=0;whiteSpace=wrap;html=1;" parent="5" vertex="1">
                    <mxGeometry y="60" width="200" height="30" as="geometry"/>
                </mxCell>
                <mxCell id="7" value="content" style="text;strokeColor=none;fillColor=none;align=left;verticalAlign=middle;spacingLeft=4;spacingRight=4;overflow=hidden;points=[[0,0.5],[1,0.5]];portConstraint=eastwest;rotatable=0;whiteSpace=wrap;html=1;" parent="5" vertex="1">
                    <mxGeometry y="90" width="200" height="30" as="geometry"/>
                </mxCell>
                <mxCell id="23" style="edgeStyle=none;html=1;exitX=0.5;exitY=0;exitDx=0;exitDy=0;entryX=0.498;entryY=1.117;entryDx=0;entryDy=0;entryPerimeter=0;startArrow=ERoneToMany;startFill=0;endArrow=ERone;endFill=0;" parent="1" source="24" target="7" edge="1">
                    <mxGeometry relative="1" as="geometry">
                        <mxPoint x="289.20000000000005" y="553.0699999999999" as="targetPoint"/>
                    </mxGeometry>
                </mxCell>
                <mxCell id="24" value="article_history" style="swimlane;fontStyle=0;childLayout=stackLayout;horizontal=1;startSize=30;horizontalStack=0;resizeParent=1;resizeParentMax=0;resizeLast=0;collapsible=1;marginBottom=0;whiteSpace=wrap;html=1;" parent="1" vertex="1">
                    <mxGeometry x="189" y="647" width="202" height="180" as="geometry"/>
                </mxCell>
                <mxCell id="25" value="id" style="text;strokeColor=none;fillColor=none;align=left;verticalAlign=middle;spacingLeft=4;spacingRight=4;overflow=hidden;points=[[0,0.5],[1,0.5]];portConstraint=eastwest;rotatable=0;whiteSpace=wrap;html=1;" parent="24" vertex="1">
                    <mxGeometry y="30" width="202" height="30" as="geometry"/>
                </mxCell>
                <mxCell id="36" value="article_id" style="text;strokeColor=none;fillColor=none;align=left;verticalAlign=middle;spacingLeft=4;spacingRight=4;overflow=hidden;points=[[0,0.5],[1,0.5]];portConstraint=eastwest;rotatable=0;whiteSpace=wrap;html=1;" parent="24" vertex="1">
                    <mxGeometry y="60" width="202" height="30" as="geometry"/>
                </mxCell>
                <mxCell id="42" value="edit_user_id" style="text;strokeColor=none;fillColor=none;align=left;verticalAlign=middle;spacingLeft=4;spacingRight=4;overflow=hidden;points=[[0,0.5],[1,0.5]];portConstraint=eastwest;rotatable=0;whiteSpace=wrap;html=1;" parent="24" vertex="1">
                    <mxGeometry y="90" width="202" height="30" as="geometry"/>
                </mxCell>
                <mxCell id="43" value="handle_type" style="text;strokeColor=none;fillColor=none;align=left;verticalAlign=middle;spacingLeft=4;spacingRight=4;overflow=hidden;points=[[0,0.5],[1,0.5]];portConstraint=eastwest;rotatable=0;whiteSpace=wrap;html=1;" parent="24" vertex="1">
                    <mxGeometry y="120" width="202" height="30" as="geometry"/>
                </mxCell>
                <mxCell id="34" value="handled_at" style="text;strokeColor=none;fillColor=none;align=left;verticalAlign=middle;spacingLeft=4;spacingRight=4;overflow=hidden;points=[[0,0.5],[1,0.5]];portConstraint=eastwest;rotatable=0;whiteSpace=wrap;html=1;" parent="24" vertex="1">
                    <mxGeometry y="150" width="202" height="30" as="geometry"/>
                </mxCell>
                <mxCell id="30" value="recent_history" style="swimlane;fontStyle=0;childLayout=stackLayout;horizontal=1;startSize=30;horizontalStack=0;resizeParent=1;resizeParentMax=0;resizeLast=0;collapsible=1;marginBottom=0;whiteSpace=wrap;html=1;" parent="1" vertex="1">
                    <mxGeometry x="191" y="910" width="200" height="90" as="geometry"/>
                </mxCell>
                <mxCell id="31" value="id" style="text;strokeColor=none;fillColor=none;align=left;verticalAlign=middle;spacingLeft=4;spacingRight=4;overflow=hidden;points=[[0,0.5],[1,0.5]];portConstraint=eastwest;rotatable=0;whiteSpace=wrap;html=1;" parent="30" vertex="1">
                    <mxGeometry y="30" width="200" height="30" as="geometry"/>
                </mxCell>
                <mxCell id="32" value="article_history_id" style="text;strokeColor=none;fillColor=none;align=left;verticalAlign=middle;spacingLeft=4;spacingRight=4;overflow=hidden;points=[[0,0.5],[1,0.5]];portConstraint=eastwest;rotatable=0;whiteSpace=wrap;html=1;" parent="30" vertex="1">
                    <mxGeometry y="60" width="200" height="30" as="geometry"/>
                </mxCell>
                <mxCell id="35" style="edgeStyle=none;html=1;startArrow=ERone;startFill=0;endArrow=ERone;endFill=0;exitX=0.452;exitY=-0.007;exitDx=0;exitDy=0;exitPerimeter=0;entryX=0.453;entryY=1.037;entryDx=0;entryDy=0;entryPerimeter=0;" parent="1" source="30" target="34" edge="1">
                    <mxGeometry relative="1" as="geometry">
                        <mxPoint x="282" y="900" as="sourcePoint"/>
                        <mxPoint x="281" y="850" as="targetPoint"/>
                    </mxGeometry>
                </mxCell>
                <mxCell id="37" value="users" style="swimlane;fontStyle=0;childLayout=stackLayout;horizontal=1;startSize=30;horizontalStack=0;resizeParent=1;resizeParentMax=0;resizeLast=0;collapsible=1;marginBottom=0;whiteSpace=wrap;html=1;" parent="1" vertex="1">
                    <mxGeometry x="439" y="424" width="200" height="90" as="geometry"/>
                </mxCell>
                <mxCell id="38" value="id" style="text;strokeColor=none;fillColor=none;align=left;verticalAlign=middle;spacingLeft=4;spacingRight=4;overflow=hidden;points=[[0,0.5],[1,0.5]];portConstraint=eastwest;rotatable=0;whiteSpace=wrap;html=1;" parent="37" vertex="1">
                    <mxGeometry y="30" width="200" height="30" as="geometry"/>
                </mxCell>
                <mxCell id="39" value="name" style="text;strokeColor=none;fillColor=none;align=left;verticalAlign=middle;spacingLeft=4;spacingRight=4;overflow=hidden;points=[[0,0.5],[1,0.5]];portConstraint=eastwest;rotatable=0;whiteSpace=wrap;html=1;" parent="37" vertex="1">
                    <mxGeometry y="60" width="200" height="30" as="geometry"/>
                </mxCell>
                <mxCell id="41" style="edgeStyle=none;html=1;exitX=0.641;exitY=0;exitDx=0;exitDy=0;startArrow=ERoneToMany;startFill=0;endArrow=ERone;endFill=0;entryX=0.448;entryY=1.067;entryDx=0;entryDy=0;entryPerimeter=0;exitPerimeter=0;" parent="1" source="24" target="39" edge="1">
                    <mxGeometry relative="1" as="geometry">
                        <mxPoint x="530.4" y="641.49" as="sourcePoint"/>
                        <mxPoint x="530" y="500" as="targetPoint"/>
                        <Array as="points">
                            <mxPoint x="318" y="600"/>
                            <mxPoint x="392" y="600"/>
                            <mxPoint x="530" y="600"/>
                        </Array>
                    </mxGeometry>
                </mxCell>
                <mxCell id="46" value="- handle_type&lt;br&gt;行った操作（作成、更新、復元）の種類&lt;br&gt;&lt;br&gt;- handled_at&lt;br&gt;操作を行った時刻" style="text;html=1;strokeColor=default;fillColor=none;align=left;verticalAlign=top;whiteSpace=wrap;rounded=0;dashed=1;perimeterSpacing=0;strokeWidth=1;spacing=6;" parent="1" vertex="1">
                    <mxGeometry x="424" y="709" width="240" height="111" as="geometry"/>
                </mxCell>
                <mxCell id="47" value="articles" style="swimlane;fontStyle=0;childLayout=stackLayout;horizontal=1;startSize=30;horizontalStack=0;resizeParent=1;resizeParentMax=0;resizeLast=0;collapsible=1;marginBottom=0;whiteSpace=wrap;html=1;" parent="1" vertex="1">
                    <mxGeometry x="195" y="1188" width="200" height="90" as="geometry"/>
                </mxCell>
                <mxCell id="48" value="id" style="text;strokeColor=none;fillColor=none;align=left;verticalAlign=middle;spacingLeft=4;spacingRight=4;overflow=hidden;points=[[0,0.5],[1,0.5]];portConstraint=eastwest;rotatable=0;whiteSpace=wrap;html=1;" parent="47" vertex="1">
                    <mxGeometry y="30" width="200" height="30" as="geometry"/>
                </mxCell>
                <mxCell id="49" value="title" style="text;strokeColor=none;fillColor=none;align=left;verticalAlign=middle;spacingLeft=4;spacingRight=4;overflow=hidden;points=[[0,0.5],[1,0.5]];portConstraint=eastwest;rotatable=0;whiteSpace=wrap;html=1;" parent="47" vertex="1">
                    <mxGeometry y="60" width="200" height="30" as="geometry"/>
                </mxCell>
                <mxCell id="51" style="edgeStyle=none;html=1;exitX=0.5;exitY=0;exitDx=0;exitDy=0;entryX=0.5;entryY=1;entryDx=0;entryDy=0;startArrow=ERoneToMany;startFill=0;endArrow=ERone;endFill=0;" parent="1" source="52" target="47" edge="1">
                    <mxGeometry relative="1" as="geometry">
                        <mxPoint x="294.6" y="1311.51" as="targetPoint"/>
                    </mxGeometry>
                </mxCell>
                <mxCell id="52" value="article_history" style="swimlane;fontStyle=0;childLayout=stackLayout;horizontal=1;startSize=30;horizontalStack=0;resizeParent=1;resizeParentMax=0;resizeLast=0;collapsible=1;marginBottom=0;whiteSpace=wrap;html=1;" parent="1" vertex="1">
                    <mxGeometry x="195" y="1411" width="202" height="210" as="geometry"/>
                </mxCell>
                <mxCell id="53" value="id" style="text;strokeColor=none;fillColor=none;align=left;verticalAlign=middle;spacingLeft=4;spacingRight=4;overflow=hidden;points=[[0,0.5],[1,0.5]];portConstraint=eastwest;rotatable=0;whiteSpace=wrap;html=1;" parent="52" vertex="1">
                    <mxGeometry y="30" width="202" height="30" as="geometry"/>
                </mxCell>
                <mxCell id="72" value="content" style="text;strokeColor=none;fillColor=none;align=left;verticalAlign=middle;spacingLeft=4;spacingRight=4;overflow=hidden;points=[[0,0.5],[1,0.5]];portConstraint=eastwest;rotatable=0;whiteSpace=wrap;html=1;" parent="52" vertex="1">
                    <mxGeometry y="60" width="202" height="30" as="geometry"/>
                </mxCell>
                <mxCell id="54" value="article_id" style="text;strokeColor=none;fillColor=none;align=left;verticalAlign=middle;spacingLeft=4;spacingRight=4;overflow=hidden;points=[[0,0.5],[1,0.5]];portConstraint=eastwest;rotatable=0;whiteSpace=wrap;html=1;" parent="52" vertex="1">
                    <mxGeometry y="90" width="202" height="30" as="geometry"/>
                </mxCell>
                <mxCell id="55" value="edit_user_id" style="text;strokeColor=none;fillColor=none;align=left;verticalAlign=middle;spacingLeft=4;spacingRight=4;overflow=hidden;points=[[0,0.5],[1,0.5]];portConstraint=eastwest;rotatable=0;whiteSpace=wrap;html=1;" parent="52" vertex="1">
                    <mxGeometry y="120" width="202" height="30" as="geometry"/>
                </mxCell>
                <mxCell id="56" value="handle_type" style="text;strokeColor=none;fillColor=none;align=left;verticalAlign=middle;spacingLeft=4;spacingRight=4;overflow=hidden;points=[[0,0.5],[1,0.5]];portConstraint=eastwest;rotatable=0;whiteSpace=wrap;html=1;" parent="52" vertex="1">
                    <mxGeometry y="150" width="202" height="30" as="geometry"/>
                </mxCell>
                <mxCell id="57" value="handled_at" style="text;strokeColor=none;fillColor=none;align=left;verticalAlign=middle;spacingLeft=4;spacingRight=4;overflow=hidden;points=[[0,0.5],[1,0.5]];portConstraint=eastwest;rotatable=0;whiteSpace=wrap;html=1;" parent="52" vertex="1">
                    <mxGeometry y="180" width="202" height="30" as="geometry"/>
                </mxCell>
                <mxCell id="62" value="users" style="swimlane;fontStyle=0;childLayout=stackLayout;horizontal=1;startSize=30;horizontalStack=0;resizeParent=1;resizeParentMax=0;resizeLast=0;collapsible=1;marginBottom=0;whiteSpace=wrap;html=1;" parent="1" vertex="1">
                    <mxGeometry x="445" y="1188" width="200" height="90" as="geometry"/>
                </mxCell>
                <mxCell id="63" value="id" style="text;strokeColor=none;fillColor=none;align=left;verticalAlign=middle;spacingLeft=4;spacingRight=4;overflow=hidden;points=[[0,0.5],[1,0.5]];portConstraint=eastwest;rotatable=0;whiteSpace=wrap;html=1;" parent="62" vertex="1">
                    <mxGeometry y="30" width="200" height="30" as="geometry"/>
                </mxCell>
                <mxCell id="64" value="name" style="text;strokeColor=none;fillColor=none;align=left;verticalAlign=middle;spacingLeft=4;spacingRight=4;overflow=hidden;points=[[0,0.5],[1,0.5]];portConstraint=eastwest;rotatable=0;whiteSpace=wrap;html=1;" parent="62" vertex="1">
                    <mxGeometry y="60" width="200" height="30" as="geometry"/>
                </mxCell>
                <mxCell id="65" style="edgeStyle=none;html=1;exitX=0.641;exitY=0;exitDx=0;exitDy=0;startArrow=ERoneToMany;startFill=0;endArrow=ERone;endFill=0;entryX=0.448;entryY=1.067;entryDx=0;entryDy=0;entryPerimeter=0;exitPerimeter=0;" parent="1" source="52" target="64" edge="1">
                    <mxGeometry relative="1" as="geometry">
                        <mxPoint x="536.4" y="1405.49" as="sourcePoint"/>
                        <mxPoint x="536" y="1264" as="targetPoint"/>
                        <Array as="points">
                            <mxPoint x="324" y="1364"/>
                            <mxPoint x="398" y="1364"/>
                            <mxPoint x="536" y="1364"/>
                        </Array>
                    </mxGeometry>
                </mxCell>
                <mxCell id="66" value="- handle_type&lt;br&gt;&amp;nbsp; 行った操作（作成、更新、復元）の種類&lt;br&gt;&lt;br&gt;- handled_at&lt;br&gt;&amp;nbsp; - 操作を行った時刻&lt;br&gt;&amp;nbsp; - handled_atが最新の日付のものが、最新の履歴　&lt;br&gt;" style="text;html=1;strokeColor=default;fillColor=none;align=left;verticalAlign=top;whiteSpace=wrap;rounded=0;dashed=1;perimeterSpacing=0;strokeWidth=1;spacing=6;" parent="1" vertex="1">
                    <mxGeometry x="445" y="1452" width="240" height="152" as="geometry"/>
                </mxCell>
                <mxCell id="73" value="articles" style="swimlane;fontStyle=0;childLayout=stackLayout;horizontal=1;startSize=30;horizontalStack=0;resizeParent=1;resizeParentMax=0;resizeLast=0;collapsible=1;marginBottom=0;whiteSpace=wrap;html=1;" vertex="1" parent="1">
                    <mxGeometry x="899" y="1156" width="200" height="150" as="geometry"/>
                </mxCell>
                <mxCell id="74" value="id" style="text;strokeColor=none;fillColor=none;align=left;verticalAlign=middle;spacingLeft=4;spacingRight=4;overflow=hidden;points=[[0,0.5],[1,0.5]];portConstraint=eastwest;rotatable=0;whiteSpace=wrap;html=1;" vertex="1" parent="73">
                    <mxGeometry y="30" width="200" height="30" as="geometry"/>
                </mxCell>
                <mxCell id="75" value="title" style="text;strokeColor=none;fillColor=none;align=left;verticalAlign=middle;spacingLeft=4;spacingRight=4;overflow=hidden;points=[[0,0.5],[1,0.5]];portConstraint=eastwest;rotatable=0;whiteSpace=wrap;html=1;" vertex="1" parent="73">
                    <mxGeometry y="60" width="200" height="30" as="geometry"/>
                </mxCell>
                <mxCell id="76" value="content" style="text;strokeColor=none;fillColor=none;align=left;verticalAlign=middle;spacingLeft=4;spacingRight=4;overflow=hidden;points=[[0,0.5],[1,0.5]];portConstraint=eastwest;rotatable=0;whiteSpace=wrap;html=1;" vertex="1" parent="73">
                    <mxGeometry y="90" width="200" height="30" as="geometry"/>
                </mxCell>
                <mxCell id="93" value="recent_article_history_id" style="text;strokeColor=none;fillColor=none;align=left;verticalAlign=middle;spacingLeft=4;spacingRight=4;overflow=hidden;points=[[0,0.5],[1,0.5]];portConstraint=eastwest;rotatable=0;whiteSpace=wrap;html=1;" vertex="1" parent="73">
                    <mxGeometry y="120" width="200" height="30" as="geometry"/>
                </mxCell>
                <mxCell id="77" style="edgeStyle=none;html=1;exitX=0.5;exitY=0;exitDx=0;exitDy=0;startArrow=ERoneToMany;startFill=0;endArrow=ERone;endFill=0;entryX=0.498;entryY=1.015;entryDx=0;entryDy=0;entryPerimeter=0;" edge="1" parent="1" source="78" target="93">
                    <mxGeometry relative="1" as="geometry">
                        <mxPoint x="997" y="1305" as="targetPoint"/>
                    </mxGeometry>
                </mxCell>
                <mxCell id="78" value="article_history" style="swimlane;fontStyle=0;childLayout=stackLayout;horizontal=1;startSize=30;horizontalStack=0;resizeParent=1;resizeParentMax=0;resizeLast=0;collapsible=1;marginBottom=0;whiteSpace=wrap;html=1;" vertex="1" parent="1">
                    <mxGeometry x="899" y="1409" width="202" height="180" as="geometry"/>
                </mxCell>
                <mxCell id="79" value="id" style="text;strokeColor=none;fillColor=none;align=left;verticalAlign=middle;spacingLeft=4;spacingRight=4;overflow=hidden;points=[[0,0.5],[1,0.5]];portConstraint=eastwest;rotatable=0;whiteSpace=wrap;html=1;" vertex="1" parent="78">
                    <mxGeometry y="30" width="202" height="30" as="geometry"/>
                </mxCell>
                <mxCell id="80" value="article_id" style="text;strokeColor=none;fillColor=none;align=left;verticalAlign=middle;spacingLeft=4;spacingRight=4;overflow=hidden;points=[[0,0.5],[1,0.5]];portConstraint=eastwest;rotatable=0;whiteSpace=wrap;html=1;" vertex="1" parent="78">
                    <mxGeometry y="60" width="202" height="30" as="geometry"/>
                </mxCell>
                <mxCell id="81" value="edit_user_id" style="text;strokeColor=none;fillColor=none;align=left;verticalAlign=middle;spacingLeft=4;spacingRight=4;overflow=hidden;points=[[0,0.5],[1,0.5]];portConstraint=eastwest;rotatable=0;whiteSpace=wrap;html=1;" vertex="1" parent="78">
                    <mxGeometry y="90" width="202" height="30" as="geometry"/>
                </mxCell>
                <mxCell id="82" value="handle_type" style="text;strokeColor=none;fillColor=none;align=left;verticalAlign=middle;spacingLeft=4;spacingRight=4;overflow=hidden;points=[[0,0.5],[1,0.5]];portConstraint=eastwest;rotatable=0;whiteSpace=wrap;html=1;" vertex="1" parent="78">
                    <mxGeometry y="120" width="202" height="30" as="geometry"/>
                </mxCell>
                <mxCell id="83" value="handled_at" style="text;strokeColor=none;fillColor=none;align=left;verticalAlign=middle;spacingLeft=4;spacingRight=4;overflow=hidden;points=[[0,0.5],[1,0.5]];portConstraint=eastwest;rotatable=0;whiteSpace=wrap;html=1;" vertex="1" parent="78">
                    <mxGeometry y="150" width="202" height="30" as="geometry"/>
                </mxCell>
                <mxCell id="87" style="edgeStyle=none;html=1;startArrow=ERone;startFill=0;endArrow=ERone;endFill=0;entryX=0.25;entryY=0;entryDx=0;entryDy=0;exitX=0.248;exitY=1.012;exitDx=0;exitDy=0;exitPerimeter=0;" edge="1" parent="1" source="93" target="78">
                    <mxGeometry relative="1" as="geometry">
                        <mxPoint x="948" y="1307" as="sourcePoint"/>
                        <mxPoint x="991" y="1612" as="targetPoint"/>
                    </mxGeometry>
                </mxCell>
                <mxCell id="88" value="users" style="swimlane;fontStyle=0;childLayout=stackLayout;horizontal=1;startSize=30;horizontalStack=0;resizeParent=1;resizeParentMax=0;resizeLast=0;collapsible=1;marginBottom=0;whiteSpace=wrap;html=1;" vertex="1" parent="1">
                    <mxGeometry x="1149" y="1186" width="200" height="90" as="geometry"/>
                </mxCell>
                <mxCell id="89" value="id" style="text;strokeColor=none;fillColor=none;align=left;verticalAlign=middle;spacingLeft=4;spacingRight=4;overflow=hidden;points=[[0,0.5],[1,0.5]];portConstraint=eastwest;rotatable=0;whiteSpace=wrap;html=1;" vertex="1" parent="88">
                    <mxGeometry y="30" width="200" height="30" as="geometry"/>
                </mxCell>
                <mxCell id="90" value="name" style="text;strokeColor=none;fillColor=none;align=left;verticalAlign=middle;spacingLeft=4;spacingRight=4;overflow=hidden;points=[[0,0.5],[1,0.5]];portConstraint=eastwest;rotatable=0;whiteSpace=wrap;html=1;" vertex="1" parent="88">
                    <mxGeometry y="60" width="200" height="30" as="geometry"/>
                </mxCell>
                <mxCell id="91" style="edgeStyle=none;html=1;exitX=0.641;exitY=0;exitDx=0;exitDy=0;startArrow=ERoneToMany;startFill=0;endArrow=ERone;endFill=0;entryX=0.448;entryY=1.067;entryDx=0;entryDy=0;entryPerimeter=0;exitPerimeter=0;" edge="1" parent="1" source="78" target="90">
                    <mxGeometry relative="1" as="geometry">
                        <mxPoint x="1240.4" y="1403.49" as="sourcePoint"/>
                        <mxPoint x="1240" y="1262" as="targetPoint"/>
                        <Array as="points">
                            <mxPoint x="1028" y="1362"/>
                            <mxPoint x="1102" y="1362"/>
                            <mxPoint x="1240" y="1362"/>
                        </Array>
                    </mxGeometry>
                </mxCell>
                <mxCell id="92" value="- handle_type&lt;br&gt;行った操作（作成、更新、復元）の種類&lt;br&gt;&lt;br&gt;- handled_at&lt;br&gt;操作を行った時刻" style="text;html=1;strokeColor=default;fillColor=none;align=left;verticalAlign=top;whiteSpace=wrap;rounded=0;dashed=1;perimeterSpacing=0;strokeWidth=1;spacing=6;" vertex="1" parent="1">
                    <mxGeometry x="1134" y="1471" width="240" height="111" as="geometry"/>
                </mxCell>
                <mxCell id="95" value="articles" style="swimlane;fontStyle=0;childLayout=stackLayout;horizontal=1;startSize=30;horizontalStack=0;resizeParent=1;resizeParentMax=0;resizeLast=0;collapsible=1;marginBottom=0;whiteSpace=wrap;html=1;" vertex="1" parent="1">
                    <mxGeometry x="219" y="2053" width="200" height="90" as="geometry"/>
                </mxCell>
                <mxCell id="96" value="id" style="text;strokeColor=none;fillColor=none;align=left;verticalAlign=middle;spacingLeft=4;spacingRight=4;overflow=hidden;points=[[0,0.5],[1,0.5]];portConstraint=eastwest;rotatable=0;whiteSpace=wrap;html=1;" vertex="1" parent="95">
                    <mxGeometry y="30" width="200" height="30" as="geometry"/>
                </mxCell>
                <mxCell id="97" value="title" style="text;strokeColor=none;fillColor=none;align=left;verticalAlign=middle;spacingLeft=4;spacingRight=4;overflow=hidden;points=[[0,0.5],[1,0.5]];portConstraint=eastwest;rotatable=0;whiteSpace=wrap;html=1;" vertex="1" parent="95">
                    <mxGeometry y="60" width="200" height="30" as="geometry"/>
                </mxCell>
                <mxCell id="98" style="edgeStyle=none;html=1;entryX=0.5;entryY=1;entryDx=0;entryDy=0;startArrow=ERoneToMany;startFill=0;endArrow=ERone;endFill=0;" edge="1" parent="1" source="111" target="95">
                    <mxGeometry relative="1" as="geometry">
                        <mxPoint x="318.6" y="2077.51" as="targetPoint"/>
                        <mxPoint x="319" y="2226" as="sourcePoint"/>
                    </mxGeometry>
                </mxCell>
                <mxCell id="135" style="edgeStyle=elbowEdgeStyle;elbow=vertical;html=1;exitX=0.5;exitY=0;exitDx=0;exitDy=0;entryX=0.515;entryY=1.021;entryDx=0;entryDy=0;entryPerimeter=0;startArrow=ERoneToMany;startFill=0;endArrow=ERone;endFill=0;" edge="1" parent="1" source="99" target="125">
                    <mxGeometry relative="1" as="geometry"/>
                </mxCell>
                <mxCell id="99" value="article_history" style="swimlane;fontStyle=0;childLayout=stackLayout;horizontal=1;startSize=30;horizontalStack=0;resizeParent=1;resizeParentMax=0;resizeLast=0;collapsible=1;marginBottom=0;whiteSpace=wrap;html=1;" vertex="1" parent="1">
                    <mxGeometry x="222" y="2560" width="202" height="240" as="geometry"/>
                </mxCell>
                <mxCell id="100" value="id" style="text;strokeColor=none;fillColor=none;align=left;verticalAlign=middle;spacingLeft=4;spacingRight=4;overflow=hidden;points=[[0,0.5],[1,0.5]];portConstraint=eastwest;rotatable=0;whiteSpace=wrap;html=1;" vertex="1" parent="99">
                    <mxGeometry y="30" width="202" height="30" as="geometry"/>
                </mxCell>
                <mxCell id="102" value="version_id" style="text;strokeColor=none;fillColor=none;align=left;verticalAlign=middle;spacingLeft=4;spacingRight=4;overflow=hidden;points=[[0,0.5],[1,0.5]];portConstraint=eastwest;rotatable=0;whiteSpace=wrap;html=1;" vertex="1" parent="99">
                    <mxGeometry y="60" width="202" height="30" as="geometry"/>
                </mxCell>
                <mxCell id="103" value="edit_user_id" style="text;strokeColor=none;fillColor=none;align=left;verticalAlign=middle;spacingLeft=4;spacingRight=4;overflow=hidden;points=[[0,0.5],[1,0.5]];portConstraint=eastwest;rotatable=0;whiteSpace=wrap;html=1;" vertex="1" parent="99">
                    <mxGeometry y="90" width="202" height="30" as="geometry"/>
                </mxCell>
                <mxCell id="104" value="handle_type" style="text;strokeColor=none;fillColor=none;align=left;verticalAlign=middle;spacingLeft=4;spacingRight=4;overflow=hidden;points=[[0,0.5],[1,0.5]];portConstraint=eastwest;rotatable=0;whiteSpace=wrap;html=1;" vertex="1" parent="99">
                    <mxGeometry y="120" width="202" height="30" as="geometry"/>
                </mxCell>
                <mxCell id="137" value="old_content_id" style="text;strokeColor=none;fillColor=none;align=left;verticalAlign=middle;spacingLeft=4;spacingRight=4;overflow=hidden;points=[[0,0.5],[1,0.5]];portConstraint=eastwest;rotatable=0;whiteSpace=wrap;html=1;" vertex="1" parent="99">
                    <mxGeometry y="150" width="202" height="30" as="geometry"/>
                </mxCell>
                <mxCell id="138" value="new_content_id" style="text;strokeColor=none;fillColor=none;align=left;verticalAlign=middle;spacingLeft=4;spacingRight=4;overflow=hidden;points=[[0,0.5],[1,0.5]];portConstraint=eastwest;rotatable=0;whiteSpace=wrap;html=1;" vertex="1" parent="99">
                    <mxGeometry y="180" width="202" height="30" as="geometry"/>
                </mxCell>
                <mxCell id="105" value="handled_at" style="text;strokeColor=none;fillColor=none;align=left;verticalAlign=middle;spacingLeft=4;spacingRight=4;overflow=hidden;points=[[0,0.5],[1,0.5]];portConstraint=eastwest;rotatable=0;whiteSpace=wrap;html=1;" vertex="1" parent="99">
                    <mxGeometry y="210" width="202" height="30" as="geometry"/>
                </mxCell>
                <mxCell id="106" value="users" style="swimlane;fontStyle=0;childLayout=stackLayout;horizontal=1;startSize=30;horizontalStack=0;resizeParent=1;resizeParentMax=0;resizeLast=0;collapsible=1;marginBottom=0;whiteSpace=wrap;html=1;" vertex="1" parent="1">
                    <mxGeometry x="-33" y="2423" width="200" height="90" as="geometry"/>
                </mxCell>
                <mxCell id="107" value="id" style="text;strokeColor=none;fillColor=none;align=left;verticalAlign=middle;spacingLeft=4;spacingRight=4;overflow=hidden;points=[[0,0.5],[1,0.5]];portConstraint=eastwest;rotatable=0;whiteSpace=wrap;html=1;" vertex="1" parent="106">
                    <mxGeometry y="30" width="200" height="30" as="geometry"/>
                </mxCell>
                <mxCell id="108" value="name" style="text;strokeColor=none;fillColor=none;align=left;verticalAlign=middle;spacingLeft=4;spacingRight=4;overflow=hidden;points=[[0,0.5],[1,0.5]];portConstraint=eastwest;rotatable=0;whiteSpace=wrap;html=1;" vertex="1" parent="106">
                    <mxGeometry y="60" width="200" height="30" as="geometry"/>
                </mxCell>
                <mxCell id="110" value="- handle_type&lt;br&gt;&amp;nbsp; 行った操作（作成、更新、復元）の種類&lt;br&gt;&lt;br&gt;- handled_at&lt;br&gt;&amp;nbsp; - 操作を行った時刻　" style="text;html=1;strokeColor=default;fillColor=none;align=left;verticalAlign=top;whiteSpace=wrap;rounded=0;dashed=1;perimeterSpacing=0;strokeWidth=1;spacing=6;" vertex="1" parent="1">
                    <mxGeometry x="462" y="2708" width="240" height="152" as="geometry"/>
                </mxCell>
                <mxCell id="111" value="versions" style="swimlane;fontStyle=0;childLayout=stackLayout;horizontal=1;startSize=30;horizontalStack=0;resizeParent=1;resizeParentMax=0;resizeLast=0;collapsible=1;marginBottom=0;whiteSpace=wrap;html=1;" vertex="1" parent="1">
                    <mxGeometry x="219" y="2223" width="202" height="150" as="geometry"/>
                </mxCell>
                <mxCell id="112" value="id" style="text;strokeColor=none;fillColor=none;align=left;verticalAlign=middle;spacingLeft=4;spacingRight=4;overflow=hidden;points=[[0,0.5],[1,0.5]];portConstraint=eastwest;rotatable=0;whiteSpace=wrap;html=1;" vertex="1" parent="111">
                    <mxGeometry y="30" width="202" height="30" as="geometry"/>
                </mxCell>
                <mxCell id="113" value="article_id" style="text;strokeColor=none;fillColor=none;align=left;verticalAlign=middle;spacingLeft=4;spacingRight=4;overflow=hidden;points=[[0,0.5],[1,0.5]];portConstraint=eastwest;rotatable=0;whiteSpace=wrap;html=1;" vertex="1" parent="111">
                    <mxGeometry y="60" width="202" height="30" as="geometry"/>
                </mxCell>
                <mxCell id="126" value="version" style="text;strokeColor=none;fillColor=none;align=left;verticalAlign=middle;spacingLeft=4;spacingRight=4;overflow=hidden;points=[[0,0.5],[1,0.5]];portConstraint=eastwest;rotatable=0;whiteSpace=wrap;html=1;" vertex="1" parent="111">
                    <mxGeometry y="90" width="202" height="30" as="geometry"/>
                </mxCell>
                <mxCell id="125" value="is_latest" style="text;strokeColor=none;fillColor=none;align=left;verticalAlign=middle;spacingLeft=4;spacingRight=4;overflow=hidden;points=[[0,0.5],[1,0.5]];portConstraint=eastwest;rotatable=0;whiteSpace=wrap;html=1;" vertex="1" parent="111">
                    <mxGeometry y="120" width="202" height="30" as="geometry"/>
                </mxCell>
                <mxCell id="119" style="edgeStyle=none;html=1;exitX=0;exitY=0.5;exitDx=0;exitDy=0;entryX=0.5;entryY=0;entryDx=0;entryDy=0;strokeColor=none;" edge="1" parent="1" source="96" target="111">
                    <mxGeometry relative="1" as="geometry"/>
                </mxCell>
                <mxCell id="122" value="- バージョン管理のテーブル&lt;br&gt;- is_latestで最新バージョンを管理" style="text;html=1;strokeColor=default;fillColor=none;align=left;verticalAlign=top;whiteSpace=wrap;rounded=0;dashed=1;perimeterSpacing=0;strokeWidth=1;spacing=6;" vertex="1" parent="1">
                    <mxGeometry x="-49" y="2239" width="240" height="83" as="geometry"/>
                </mxCell>
                <mxCell id="127" value="contents" style="swimlane;fontStyle=0;childLayout=stackLayout;horizontal=1;startSize=30;horizontalStack=0;resizeParent=1;resizeParentMax=0;resizeLast=0;collapsible=1;marginBottom=0;whiteSpace=wrap;html=1;" vertex="1" parent="1">
                    <mxGeometry x="462" y="2393" width="202" height="120" as="geometry"/>
                </mxCell>
                <mxCell id="128" value="id" style="text;strokeColor=none;fillColor=none;align=left;verticalAlign=middle;spacingLeft=4;spacingRight=4;overflow=hidden;points=[[0,0.5],[1,0.5]];portConstraint=eastwest;rotatable=0;whiteSpace=wrap;html=1;" vertex="1" parent="127">
                    <mxGeometry y="30" width="202" height="30" as="geometry"/>
                </mxCell>
                <mxCell id="129" value="version_id" style="text;strokeColor=none;fillColor=none;align=left;verticalAlign=middle;spacingLeft=4;spacingRight=4;overflow=hidden;points=[[0,0.5],[1,0.5]];portConstraint=eastwest;rotatable=0;whiteSpace=wrap;html=1;" vertex="1" parent="127">
                    <mxGeometry y="60" width="202" height="30" as="geometry"/>
                </mxCell>
                <mxCell id="130" value="content_data" style="text;strokeColor=none;fillColor=none;align=left;verticalAlign=middle;spacingLeft=4;spacingRight=4;overflow=hidden;points=[[0,0.5],[1,0.5]];portConstraint=eastwest;rotatable=0;whiteSpace=wrap;html=1;" vertex="1" parent="127">
                    <mxGeometry y="90" width="202" height="30" as="geometry"/>
                </mxCell>
                <mxCell id="133" style="edgeStyle=elbowEdgeStyle;elbow=vertical;html=1;exitX=1;exitY=0.5;exitDx=0;exitDy=0;entryX=0.5;entryY=0;entryDx=0;entryDy=0;startArrow=ERone;startFill=0;endArrow=ERoneToMany;endFill=0;" edge="1" parent="1" source="126" target="127">
                    <mxGeometry relative="1" as="geometry">
                        <Array as="points">
                            <mxPoint x="474" y="2328"/>
                            <mxPoint x="452" y="2291"/>
                        </Array>
                    </mxGeometry>
                </mxCell>
                <mxCell id="134" style="edgeStyle=elbowEdgeStyle;elbow=vertical;html=1;exitX=1;exitY=0.5;exitDx=0;exitDy=0;startArrow=ERoneToMany;startFill=0;endArrow=ERone;endFill=0;" edge="1" parent="1" source="103">
                    <mxGeometry relative="1" as="geometry">
                        <mxPoint x="565" y="2515" as="targetPoint"/>
                        <Array as="points">
                            <mxPoint x="483" y="2665"/>
                        </Array>
                    </mxGeometry>
                </mxCell>
                <mxCell id="136" style="edgeStyle=elbowEdgeStyle;elbow=vertical;html=1;exitX=0;exitY=0.5;exitDx=0;exitDy=0;entryX=0.435;entryY=1.115;entryDx=0;entryDy=0;entryPerimeter=0;startArrow=ERoneToMany;startFill=0;endArrow=ERone;endFill=0;" edge="1" parent="1" source="103" target="108">
                    <mxGeometry relative="1" as="geometry">
                        <Array as="points">
                            <mxPoint x="92" y="2665"/>
                        </Array>
                    </mxGeometry>
                </mxCell>
            </root>
        </mxGraphModel>
    </diagram>
</mxfile>